<svg xmlns="http://www.w3.org/2000/svg" width="440" height="172" viewBox="0 0 440 172" role="img" aria-labelledby="hard_solved_title hard_solved_desc">
  <title id="hard_solved_title">Hard progress card</title>
  <desc id="hard_solved_desc">Hard: 2 solved out of 926 total problems.</desc>
  <defs>
    <linearGradient id="hard_solved_panel" x1="0%" y1="0%" x2="100%" y2="100%">
      <stop offset="0%" stop-color="#0d1728" />
      <stop offset="100%" stop-color="#09111d" />
    </linearGradient>
    <linearGradient id="hard_solved_gradient" x1="0%" y1="0%" x2="100%" y2="0%">
      <stop offset="0%" stop-color="#ef4444" />
      <stop offset="100%" stop-color="#ec4899" />
    </linearGradient>
    <filter id="hard_solved_glow" x="-50%" y="-50%" width="200%" height="200%">
      <feGaussianBlur stdDeviation="18" result="blur" />
      <feColorMatrix
        in="blur"
        type="matrix"
        values="1 0 0 0 0  0 1 0 0 0  0 0 1 0 0  0 0 0 0.35 0"
      />
    </filter>
    <pattern id="hard_solved_pattern" width="24" height="24" patternUnits="userSpaceOnUse">
      <path d="M 24 0 L 0 0 0 24" fill="none" stroke="#223048" stroke-width="1" opacity="0.35" />
    </pattern>
  </defs>
  <rect width="440" height="172" rx="26" fill="#050b15" />
  <rect x="1" y="1" width="438" height="170" rx="25" fill="url(#hard_solved_panel)" stroke="#1f2c43" />
  <rect x="1" y="1" width="438" height="170" rx="25" fill="url(#hard_solved_pattern)" />
  <circle cx="364" cy="28" r="62" fill="#ef4444" opacity="0.16" filter="url(#hard_solved_glow)" />
  <circle cx="410" cy="148" r="70" fill="#ec4899" opacity="0.08" />
  <rect x="24" y="24" width="64" height="64" rx="22" fill="#301019" stroke="#243149" />
  <text x="56" y="63" fill="white" font-size="28" font-weight="700" text-anchor="middle" font-family="SFMono-Regular,Consolas,Monaco,monospace">H</text>
  <text x="104" y="40" fill="#7dd3fc" font-size="11" font-weight="700" letter-spacing="1.2" font-family="SFMono-Regular,Consolas,Monaco,monospace">LIVE METRIC</text>
  <text x="104" y="66" fill="#f8fafc" font-size="24" font-weight="700" font-family="Segoe UI,Arial,sans-serif">Hard</text>
  <rect x="346" y="24" width="70" height="30" rx="15" fill="#101a2d" stroke="#ec4899" stroke-opacity="0.45" />
  <text x="381" y="44" fill="#f8fafc" font-size="13" font-weight="700" text-anchor="middle" font-family="Segoe UI,Arial,sans-serif">0.22%</text>
  <text x="104" y="104" fill="#ffffff" font-size="32" font-weight="700" font-family="Segoe UI,Arial,sans-serif">2</text>
  <text x="184" y="104" fill="#94a3b8" font-size="18" font-family="Segoe UI,Arial,sans-serif">/ 926</text>
  <rect x="104" y="120" width="286" height="14" rx="7" fill="#162338" />
  <rect x="104" y="120" width="26.00" height="14" rx="7" fill="url(#hard_solved_gradient)" />
  <rect x="104" y="120" width="26.00" height="14" rx="7" fill="#ffffff" opacity="0.16" />
  <rect x="24" y="140" width="96" height="28" rx="14" fill="#0f1a2d" stroke="#233149" />
  <text x="72" y="158" fill="#e2e8f0" font-size="11" font-weight="700" text-anchor="middle" font-family="SFMono-Regular,Consolas,Monaco,monospace">924 LEFT</text>
  <text x="132" y="158" fill="#9fb0c8" font-size="12.5" font-family="Segoe UI,Arial,sans-serif">Stretch work for deeper problem-solving range.</text>
</svg>
