<svg xmlns="http://www.w3.org/2000/svg" width="920" height="404" viewBox="0 0 920 404" role="img" aria-labelledby="dashboard_title dashboard_desc">
  <title id="dashboard_title">LeetCode dashboard for GiveMeAJob9</title>
  <desc id="dashboard_desc">A visual summary of solved problems, completion percentages, acceptance rate, and ranking.</desc>
  <defs>
    <linearGradient id="dashboard_bg" x1="0%" y1="0%" x2="100%" y2="100%">
      <stop offset="0%" stop-color="#06111f" />
      <stop offset="50%" stop-color="#0b1428" />
      <stop offset="100%" stop-color="#111827" />
    </linearGradient>
    <linearGradient id="dashboard_accent" x1="0%" y1="0%" x2="100%" y2="0%">
      <stop offset="0%" stop-color="#f97316" />
      <stop offset="100%" stop-color="#14b8a6" />
    </linearGradient>
    <linearGradient id="dashboard_card" x1="0%" y1="0%" x2="100%" y2="100%">
      <stop offset="0%" stop-color="#0b1526" />
      <stop offset="100%" stop-color="#09111d" />
    </linearGradient>
    <pattern id="dashboard_grid" width="26" height="26" patternUnits="userSpaceOnUse">
      <path d="M 26 0 L 0 0 0 26" fill="none" stroke="#1e293b" stroke-width="1" opacity="0.32" />
    </pattern>
    <filter id="dashboard_glow" x="-60%" y="-60%" width="220%" height="220%">
      <feGaussianBlur stdDeviation="20" result="blur" />
      <feColorMatrix
        in="blur"
        type="matrix"
        values="1 0 0 0 0  0 1 0 0 0  0 0 1 0 0  0 0 0 0.30 0"
      />
    </filter>
  </defs>
  <rect width="920" height="404" rx="30" fill="url(#dashboard_bg)" />
  <rect width="920" height="404" rx="30" fill="url(#dashboard_grid)" />
  <circle cx="760" cy="54" r="92" fill="#f97316" opacity="0.12" filter="url(#dashboard_glow)" />
  <circle cx="842" cy="316" r="120" fill="#14b8a6" opacity="0.08" filter="url(#dashboard_glow)" />
  <rect x="22" y="22" width="876" height="360" rx="26" fill="#081120" fill-opacity="0.82" stroke="#213149" />

  <text x="42" y="58" fill="#f8fafc" font-size="29" font-weight="700" font-family="Segoe UI,Arial,sans-serif">LeetCode Progress Dashboard</text>
  <text x="42" y="82" fill="#93a4bd" font-size="14" font-family="Segoe UI,Arial,sans-serif">@GiveMeAJob9 | official GraphQL source | rendered as custom SVG</text>

  <rect x="646" y="38" width="100" height="28" rx="14" fill="#0f1b30" stroke="#24344d" />
  <text x="696" y="56" fill="#dbeafe" font-size="11.5" font-weight="700" text-anchor="middle" font-family="SFMono-Regular,Consolas,Monaco,monospace">OFFICIAL DATA</text>
  <rect x="758" y="38" width="118" height="28" rx="14" fill="#0f1b30" stroke="#24344d" />
  <text x="817" y="56" fill="#d1fae5" font-size="11.5" font-weight="700" text-anchor="middle" font-family="SFMono-Regular,Consolas,Monaco,monospace">AUTO REFRESH</text>

  <rect x="42" y="112" width="392" height="238" rx="28" fill="url(#dashboard_card)" stroke="#22314a" />
  <circle cx="334" cy="152" r="62" fill="#f97316" opacity="0.14" filter="url(#dashboard_glow)" />
  <circle cx="364" cy="270" r="72" fill="#14b8a6" opacity="0.08" />

  <text x="66" y="144" fill="#8fa2bb" font-size="12" letter-spacing="1.2" font-family="SFMono-Regular,Consolas,Monaco,monospace">TOTAL SOLVED</text>
  <rect x="304" y="126" width="108" height="46" rx="18" fill="#0f1a2d" stroke="#24344d" />
  <text x="358" y="146" fill="#8fa2bb" font-size="11" letter-spacing="0.8" text-anchor="middle" font-family="SFMono-Regular,Consolas,Monaco,monospace">GLOBAL RANK</text>
  <text x="358" y="164" fill="#ffffff" font-size="22" font-weight="700" text-anchor="middle" font-family="Segoe UI,Arial,sans-serif">2.98M</text>

  <text x="66" y="210" fill="#ffffff" font-size="60" font-weight="700" font-family="Segoe UI,Arial,sans-serif">36</text>
  <text x="196" y="210" fill="#94a3b8" font-size="24" font-family="Segoe UI,Arial,sans-serif">/ 3,893</text>
  <text x="66" y="240" fill="#dbe5f4" font-size="18" font-family="Segoe UI,Arial,sans-serif">0.92% of all public LeetCode problems completed</text>

  <rect x="66" y="258" width="306" height="18" rx="9" fill="#162339" />
  <rect x="66" y="258" width="30.00" height="18" rx="9" fill="url(#dashboard_accent)" />
  <rect x="66" y="258" width="30.00" height="18" rx="9" fill="#ffffff" opacity="0.16" />

  <rect x="66" y="294" width="148" height="46" rx="18" fill="#0f1b30" stroke="#24344d" />
  <text x="84" y="314" fill="#8fa2bb" font-size="11" letter-spacing="0.8" font-family="SFMono-Regular,Consolas,Monaco,monospace">NEXT TARGET</text>
  <text x="84" y="331" fill="#ffffff" font-size="22" font-weight="700" font-family="Segoe UI,Arial,sans-serif">50</text>
  <text x="150" y="331" fill="#9fb0c8" font-size="13" font-family="Segoe UI,Arial,sans-serif">14 to go</text>

  <rect x="228" y="294" width="144" height="46" rx="18" fill="#0f1b30" stroke="#24344d" />
  <text x="246" y="314" fill="#8fa2bb" font-size="11" letter-spacing="0.8" font-family="SFMono-Regular,Consolas,Monaco,monospace">ACCEPTANCE</text>
  <text x="246" y="331" fill="#ffffff" font-size="22" font-weight="700" font-family="Segoe UI,Arial,sans-serif">100.00%</text>

  <text x="474" y="110" fill="#93a4bd" font-size="13" letter-spacing="1" font-family="SFMono-Regular,Consolas,Monaco,monospace">DIFFICULTY BREAKDOWN</text>

  
  <defs>
    <linearGradient id="easy_dashboard_gradient" x1="0%" y1="0%" x2="100%" y2="0%">
      <stop offset="0%" stop-color="#22c55e" />
      <stop offset="100%" stop-color="#84cc16" />
    </linearGradient>
  </defs>
  <rect x="474" y="132" width="386" height="66" rx="22" fill="#0c1729" stroke="#22314a" />
  <rect x="492" y="150" width="62" height="32" rx="16" fill="#101b30" stroke="#84cc16" stroke-opacity="0.30" />
  <text x="523" y="171" fill="#ffffff" font-size="12" font-weight="700" text-anchor="middle" font-family="SFMono-Regular,Consolas,Monaco,monospace">EASY</text>
  <text x="574" y="162" fill="#f8fafc" font-size="18" font-weight="700" font-family="Segoe UI,Arial,sans-serif">10 solved</text>
  <text x="574" y="184" fill="#91a3bd" font-size="13.5" font-family="Segoe UI,Arial,sans-serif">925 remaining of 935</text>
  <rect x="716" y="154" width="126" height="12" rx="6" fill="#152239" />
  <rect x="716" y="154" width="18.00" height="12" rx="6" fill="url(#easy_dashboard_gradient)" />
  <text x="842" y="188" fill="#84cc16" font-size="15" font-weight="700" text-anchor="end" font-family="Segoe UI,Arial,sans-serif">1.07%</text>
    
  <defs>
    <linearGradient id="medium_dashboard_gradient" x1="0%" y1="0%" x2="100%" y2="0%">
      <stop offset="0%" stop-color="#f59e0b" />
      <stop offset="100%" stop-color="#f97316" />
    </linearGradient>
  </defs>
  <rect x="474" y="218" width="386" height="66" rx="22" fill="#0c1729" stroke="#22314a" />
  <rect x="492" y="236" width="62" height="32" rx="16" fill="#101b30" stroke="#f97316" stroke-opacity="0.30" />
  <text x="523" y="257" fill="#ffffff" font-size="12" font-weight="700" text-anchor="middle" font-family="SFMono-Regular,Consolas,Monaco,monospace">MEDIUM</text>
  <text x="574" y="248" fill="#f8fafc" font-size="18" font-weight="700" font-family="Segoe UI,Arial,sans-serif">24 solved</text>
  <text x="574" y="270" fill="#91a3bd" font-size="13.5" font-family="Segoe UI,Arial,sans-serif">2,013 remaining of 2,037</text>
  <rect x="716" y="240" width="126" height="12" rx="6" fill="#152239" />
  <rect x="716" y="240" width="18.00" height="12" rx="6" fill="url(#medium_dashboard_gradient)" />
  <text x="842" y="274" fill="#f97316" font-size="15" font-weight="700" text-anchor="end" font-family="Segoe UI,Arial,sans-serif">1.18%</text>
    
  <defs>
    <linearGradient id="hard_dashboard_gradient" x1="0%" y1="0%" x2="100%" y2="0%">
      <stop offset="0%" stop-color="#ef4444" />
      <stop offset="100%" stop-color="#ec4899" />
    </linearGradient>
  </defs>
  <rect x="474" y="304" width="386" height="66" rx="22" fill="#0c1729" stroke="#22314a" />
  <rect x="492" y="322" width="62" height="32" rx="16" fill="#101b30" stroke="#ec4899" stroke-opacity="0.30" />
  <text x="523" y="343" fill="#ffffff" font-size="12" font-weight="700" text-anchor="middle" font-family="SFMono-Regular,Consolas,Monaco,monospace">HARD</text>
  <text x="574" y="334" fill="#f8fafc" font-size="18" font-weight="700" font-family="Segoe UI,Arial,sans-serif">2 solved</text>
  <text x="574" y="356" fill="#91a3bd" font-size="13.5" font-family="Segoe UI,Arial,sans-serif">919 remaining of 921</text>
  <rect x="716" y="326" width="126" height="12" rx="6" fill="#152239" />
  <rect x="716" y="326" width="18.00" height="12" rx="6" fill="url(#hard_dashboard_gradient)" />
  <text x="842" y="360" fill="#ec4899" font-size="15" font-weight="700" text-anchor="end" font-family="Segoe UI,Arial,sans-serif">0.22%</text>
    
  <text x="42" y="378" fill="#7f91aa" font-size="12.5" font-family="Segoe UI,Arial,sans-serif">Last refresh: 2026-04-11 02:46 UTC | Generated automatically by Python + GitHub Actions.</text>
</svg>
